<?xml version="1.0"?>
<svg width="682.66669" height="682.66669" xmlns="http://www.w3.org/2000/svg" xmlns:svg="http://www.w3.org/2000/svg" version="1.1" xml:space="preserve">
 <defs id="defs4717">
  <clipPath clipPathUnits="userSpaceOnUse" id="clipPath4727">
   <path d="m0,512l512,0l0,-512l-512,0l0,512z" id="path4725"/>
  </clipPath>
 </defs>
 <g class="layer">
  <title>Layer 1</title>
  <g id="g4719" transform="matrix(1.3333333,0,0,-1.3333333,0,682.66667)">
   <g id="g4721">
    <g clip-path="url(#clipPath4727)" id="g4723">
     <g id="g4729" transform="translate(74.7969,377.9561)">
      <path d="m0,0c-0.82,-5 -1.41,-10.14 -1.76,-15.43c-1.19,-18.29 -9.08,-27.13 -10.86,-34.77c-2.16,-9.3 7.72,-18.84 11.66,-28.02c1.65,-3.84 1.38,-8.28 -0.67,-11.93c-8.13,-14.47 -18.33,-24.31 -30.53,-33.71c-7.11,-5.47 -12.54,-10.37 -12.52,-18.89c0.02,-9.94 6.24,-16.44 19.6,-20.54c25.6,-7.88 -5.34,-27.94 -5.34,-27.94c0,0 -4.29,-6.17 2.71,-11.76c8.26,-6.58 12.01,-11.46 12.01,-11.46c-12.64,-9.11 -5.77,-19.18 -5.77,-19.18c0,0 6.55,-1.4 11.65,-4.93c2.55,-1.76 4.12,-5.95 2.35,-9.11c-3.28,-5.86 -7.76,-12.89 -4.7,-25.28c4.7,-19.11 20.73,-26.18 36.81,-28.81c11.29,-1.84 34.65,2.07 58.43,5.29c43.23,5.86 62.4,-31.05 74.74,-61.43c3.79,-9.34 13.92,-14.43 23.69,-11.91l149.07,38.42c11.58,2.99 18.01,15.34 13.85,26.56c-2.32,6.24 -4.69,13.03 -6.9,20.04" fill="none" id="path4731" stroke="#fcfcfc" stroke-linecap="round" stroke-linejoin="round" stroke-miterlimit="10" stroke-width="15"/>
     </g>
     <g id="g4733" transform="translate(403.9258,127)">
      <path d="m0,0c-3.15,19.34 -2.31,36.66 7.28,45.34c60.1,54.39 70.68,84.64 70.68,155.19c0,127.88 -125.61,176.97 -227.9,176.97c-73.98,0 -142.52,-31.5 -169.36,-92.99" fill="none" id="path4735" stroke="#fcfcfc" stroke-linecap="round" stroke-linejoin="round" stroke-miterlimit="10" stroke-width="15"/>
     </g>
     <g id="g4737" transform="translate(299.6572,216.2627)">
      <path d="m0,0c3.82,-3.06 8.46,-5.2 13.64,-6.02c3.52,-0.55 6.98,-0.45 10.28,0.21c5.79,-7 14.04,-12.01 23.71,-13.54c21.06,-3.34 40.84,11.03 44.18,32.09c0.42,2.69 0.56,5.36 0.43,7.98" fill="none" id="path4739" stroke="#fcfcfc" stroke-linecap="round" stroke-linejoin="round" stroke-miterlimit="10" stroke-width="15"/>
     </g>
     <g id="g4741" transform="translate(293.6191,235.7891)">
      <path d="m0,0l19.49,-63.44c1.56,-5.06 -2.73,-10.01 -7.97,-9.18l-24.45,3.88c-5.55,0.88 -10.24,4.59 -12.37,9.8l-24.42,59.92" fill="none" id="path4743" stroke="#fcfcfc" stroke-linecap="round" stroke-linejoin="round" stroke-miterlimit="10" stroke-width="15"/>
     </g>
     <g id="g4745" transform="translate(247.8896,458.2031)">
      <path d="m0,0c-10.34,-3.6 -19.47,-10.09 -26.27,-18.66c-4.26,2.31 -8.97,3.96 -14.03,4.76c-23.57,3.73 -45.7,-12.07 -49.97,-35.41c-21.06,-3.78 -38.39,-20.47 -41.92,-42.79c-1.85,-11.7 0.38,-23.09 5.63,-32.74c-3.98,-5.54 -6.76,-12.05 -7.9,-19.24c-3.9,-24.63 12.9,-47.76 37.53,-51.66c14.73,-2.34 28.91,2.73 38.77,12.45" fill="none" id="path4747" stroke="#fcfcfc" stroke-linecap="round" stroke-linejoin="round" stroke-miterlimit="10" stroke-width="15"/>
     </g>
     <g id="g4749" transform="translate(331.7959,249.5869)">
      <path d="m0,0c8.23,-7.9 18.88,-13.46 31.01,-15.38c31.59,-5 61.26,16.55 66.26,48.14c2.4,15.13 -1.3,29.82 -9.28,41.57c8.56,7.28 14.66,17.53 16.56,29.49c4.21,26.59 -13.93,51.57 -40.53,55.78c-0.12,0.02 -0.25,0.03 -0.37,0.05c-4.67,18.28 -19.79,32.96 -39.62,36.1c-14.93,2.36 -29.36,-2.32 -39.88,-11.6c-7.35,12.05 -19.06,21.36 -33.34,25.42" fill="none" id="path4751" stroke="#fcfcfc" stroke-linecap="round" stroke-linejoin="round" stroke-miterlimit="10" stroke-width="15"/>
     </g>
     <g id="g4753" transform="translate(181.9365,325.2305)">
      <path d="m0,0c-5.9,-3.94 -9.94,-10.51 -10.33,-18.14c-0.59,-11.41 7.15,-21.3 17.89,-23.81c-1.52,-18.9 11.75,-36.07 30.79,-39.09c4.92,-0.78 9.78,-0.54 14.34,0.57c4.33,-5.72 10.8,-9.85 18.45,-11.06c9.62,-1.53 18.88,1.91 25.18,8.41c4.74,-3.18 10.22,-5.41 16.22,-6.36c19.73,-3.12 38.37,8.54 44.68,26.78" fill="none" id="path4755" stroke="#fcfcfc" stroke-linecap="round" stroke-linejoin="round" stroke-miterlimit="10" stroke-width="15"/>
     </g>
     <g id="g4757" transform="translate(306.2715,299.2607)">
      <path d="m0,0l-19.12,-19.09c-4.21,-4.21 -11.03,-4.21 -15.23,0l-52.44,52.36c-2.81,2.79 -9.91,10.64 -9.9,24.67c0,20.93 16.97,37.91 37.9,37.91c13.56,0 25.35,-7.12 32.05,-17.81c6.7,10.69 18.51,17.81 32.06,17.81c20.91,0 37.88,-17.79 37.9,-38.71c0.01,-11.3 -6.71,-20.27 -9.82,-23.78c-0.05,-0.06 -0.1,-0.11 -0.16,-0.17l-8.39,-8.38" fill="none" id="path4759" stroke="#fcfcfc" stroke-linecap="round" stroke-linejoin="round" stroke-miterlimit="10" stroke-width="15"/>
     </g>
    </g>
   </g>
  </g>
 </g>
</svg>