<?xml version="1.0"?>
<svg width="512" height="512" xmlns="http://www.w3.org/2000/svg" xmlns:svg="http://www.w3.org/2000/svg" enable-background="new 0 0 512 512" version="1.1" xml:space="preserve">
 <g class="layer">
  <title>Layer 1</title>
  <g id="svg_1">
   <g id="svg_2">
    <path d="m338.8,244.41c-17.81,33.49 -39.88,57.54 -64.41,76.06" fill="none" id="svg_3" stroke="#fcf9f9" stroke-linecap="round" stroke-linejoin="round" stroke-miterlimit="10" stroke-width="15"/>
    <path d="m293.72,220.18c-59.97,126.48 -209.11,126.14 -285.25,236.67c-3.66,5.32 3.89,11.16 8.1,6.27c61.34,-71.3 152.38,-80.34 228.51,-123.52" fill="none" id="svg_4" stroke="#fcf9f9" stroke-linecap="round" stroke-linejoin="round" stroke-miterlimit="10" stroke-width="15"/>
    <path d="m353.06,82.24c-9.82,15.91 -12.74,34.62 -8.86,52.08c2.77,12.55 9.06,24.45 18.82,34.2c7.83,7.84 17.06,13.44 26.89,16.78c24.45,8.31 52.67,2.65 72.64,-17.32c31.5,-31.5 39.85,-83.31 41.9,-114.69c0.96,-14.83 -11.37,-27.16 -26.2,-26.19c-27.05,1.76 -69.31,8.21 -100.63,30.15" fill="none" id="svg_5" stroke="#fcf9f9" stroke-linecap="round" stroke-linejoin="round" stroke-miterlimit="10" stroke-width="15"/>
    <path d="m389.91,185.3c-11.68,13.68 -22.63,28.58 -32.68,44.63c-11.37,18.14 -36.26,21.72 -52.37,7.63c-0.19,-0.16 -0.37,-0.32 -0.55,-0.48c-13.06,-11.45 -15.69,-30.86 -6.03,-45.3c14.06,-21.02 29.48,-40.21 45.92,-57.46" fill="none" id="svg_6" stroke="#fcf9f9" stroke-linecap="round" stroke-linejoin="round" stroke-miterlimit="10" stroke-width="15"/>
   </g>
   <g id="svg_7">
    <path d="m218.2,156.66c-21.07,21.86 -50.15,42.17 -88.97,50.43c-42.82,9.12 -80.62,28.22 -106.06,72.35c-2.93,5.09 -10.76,1.86 -9.16,-3.8c9.57,-33.88 34.19,-81.13 97.58,-99.94c28.64,-8.5 53.92,-22.78 73.23,-45.43" fill="none" id="svg_8" stroke="#fcf9f9" stroke-linecap="round" stroke-linejoin="round" stroke-miterlimit="10" stroke-width="15"/>
    <path d="m259.54,114.58c-7.08,8.96 -13.79,18.48 -20.09,28.54c-9.62,15.36 -30.69,18.39 -44.33,6.46c-0.15,-0.13 -0.31,-0.27 -0.46,-0.41c-11.06,-9.69 -13.27,-26.11 -5.1,-38.33c6.28,-9.39 12.87,-18.34 19.75,-26.85" fill="none" id="svg_9" stroke="#fcf9f9" stroke-linecap="round" stroke-linejoin="round" stroke-miterlimit="10" stroke-width="15"/>
    <path d="m220.3,101.44c18.15,18.15 47.5,18.23 66.08,-0.36c20.92,-20.91 26.46,-55.32 27.82,-76.15c0.65,-9.85 -7.54,-18.04 -17.39,-17.39c-20.83,1.36 -55.24,6.9 -76.15,27.82c-18.58,18.58 -18.51,47.93 -0.36,66.08z" fill="none" id="svg_10" stroke="#fcf9f9" stroke-linecap="round" stroke-linejoin="round" stroke-miterlimit="10" stroke-width="15"/>
   </g>
   <g id="svg_11">
    <path d="m408.46,379.18c-21.07,21.86 -50.15,42.17 -88.97,50.43c-42.82,9.12 -80.62,28.22 -106.06,72.35c-2.93,5.09 -10.76,1.86 -9.16,-3.8c9.57,-33.88 34.19,-81.13 97.58,-99.94c28.64,-8.5 53.92,-22.78 73.23,-45.43" fill="none" id="svg_12" stroke="#fcf9f9" stroke-linecap="round" stroke-linejoin="round" stroke-miterlimit="10" stroke-width="15"/>
    <path d="m449.8,337.1c-7.08,8.96 -13.79,18.48 -20.09,28.54c-9.62,15.36 -30.69,18.39 -44.33,6.46c-0.15,-0.13 -0.31,-0.27 -0.46,-0.41c-11.06,-9.69 -13.27,-26.11 -5.1,-38.33c6.28,-9.39 12.87,-18.34 19.75,-26.85" fill="none" id="svg_13" stroke="#fcf9f9" stroke-linecap="round" stroke-linejoin="round" stroke-miterlimit="10" stroke-width="15"/>
    <path d="m424.31,247.43c-4.84,2.96 -9.36,6.42 -13.39,10.45c-13.37,13.37 -17.08,32.31 -11.36,48.64c2.24,6.37 5.91,12.35 11,17.44c10.69,10.69 25.27,15.11 39.24,13.14c9.75,-1.37 19.2,-5.86 26.84,-13.5c20.92,-20.91 26.46,-55.32 27.82,-76.15c0.65,-9.85 -7.54,-18.04 -17.39,-17.39c-8.44,0.55 -19.11,1.78 -30.21,4.46" fill="none" id="svg_14" stroke="#fcf9f9" stroke-linecap="round" stroke-linejoin="round" stroke-miterlimit="10" stroke-width="15"/>
   </g>
  </g>
 </g>
</svg>